<svg xmlns="http://www.w3.org/2000/svg" version="1.1" xmlns:xlink="http://www.w3.org/1999/xlink" xmlns:svgjs="http://svgjs.dev/svgjs" width="1000" height="1000" viewBox="0 0 1000 1000"><rect width="1000" height="1000" fill="#ffffff"></rect><g transform="matrix(0.7,0,0,0.7,149.57575757575756,357.8026115978554)"><svg viewBox="0 0 396 161" data-background-color="#ffffff" preserveAspectRatio="xMidYMid meet" height="406" width="1000" xmlns="http://www.w3.org/2000/svg" xmlns:xlink="http://www.w3.org/1999/xlink"><g id="tight-bounds" transform="matrix(1,0,0,1,0.2400000000000091,0.05517076968781964)"><svg viewBox="0 0 395.52 160.88965846062436" height="160.88965846062436" width="395.52"><g><svg viewBox="0 0 494.1244873079052 200.99999999999997" height="160.88965846062436" width="395.52"><g><rect width="8.3574362989011" height="200.99999999999997" x="175.48845711401023" y="0" fill="#000000" opacity="1" stroke-width="0" stroke="transparent" fill-opacity="1" class="rect-o-0" data-fill-palette-color="primary" rx="1%" id="o-0" data-palette-color="#000000"></rect></g><g transform="matrix(1,0,0,1,205.7239989074168,0.4999999999999858)"><svg viewBox="0 0 288.40048840048837 200" height="200" width="288.40048840048837"><g><svg viewBox="0 0 288.40048840048837 200" height="200" width="288.40048840048837"><g><svg viewBox="0 0 288.40048840048837 200" height="200" width="288.40048840048837"><g transform="matrix(1,0,0,1,0,0)"><svg width="288.40048840048837" viewBox="4.449999809265137 -37.95000076293945 118.10000610351562 78.90000915527344" height="200" data-palette-color="#000000"><svg></svg><svg></svg><g class="undefined-text-0" data-fill-palette-color="primary" id="text-0"><path xmlns="http://www.w3.org/2000/svg" d="M9.95 0h-5.5v-36.25h9.9c1.9 0 3.643 0.25 5.23 0.75 1.58 0.5 2.947 1.243 4.1 2.23 1.147 0.98 2.037 2.177 2.67 3.59 0.633 1.42 0.95 3.047 0.95 4.88v0c0 1-0.1 1.99-0.3 2.97-0.2 0.987-0.523 1.937-0.97 2.85-0.453 0.92-1.03 1.77-1.73 2.55-0.7 0.787-1.55 1.447-2.55 1.98v0c1.333 2.1 2.783 4.423 4.35 6.97 1.567 2.553 3.15 5.047 4.75 7.48v0h-6.55c-0.667-1.033-1.357-2.117-2.07-3.25-0.72-1.133-1.437-2.26-2.15-3.38-0.72-1.113-1.42-2.213-2.1-3.3-0.687-1.08-1.33-2.087-1.93-3.02v0h-1-5.1zM9.95-31.15v13.05h4.95c1.333 0 2.45-0.227 3.35-0.68 0.9-0.447 1.61-1.003 2.13-1.67 0.513-0.667 0.88-1.383 1.1-2.15 0.213-0.767 0.32-1.467 0.32-2.1v0c0-0.633-0.107-1.327-0.32-2.08-0.22-0.747-0.597-1.447-1.13-2.1-0.533-0.647-1.24-1.187-2.12-1.62-0.887-0.433-1.98-0.65-3.28-0.65v0zM60.35 0h-24.5v-36.25h23.8v4.95h-18.3v10.6h16.3v5.05h-16.3v10.6h19zM94.55 0h-5.4c-0.167-0.367-0.4-0.9-0.7-1.6-0.3-0.7-0.643-1.51-1.03-2.43-0.38-0.913-0.797-1.913-1.25-3-0.447-1.08-0.903-2.203-1.37-3.37v0h-12.8l-4.3 10.4h-5.4l16.15-37.95c0.2 0.467 0.56 1.317 1.08 2.55 0.513 1.233 1.13 2.707 1.85 4.42 0.713 1.72 1.513 3.62 2.4 5.7 0.88 2.087 1.777 4.197 2.69 6.33 0.92 2.133 1.82 4.233 2.7 6.3 0.887 2.067 1.697 3.967 2.43 5.7 0.733 1.733 1.357 3.207 1.87 4.42 0.52 1.22 0.88 2.063 1.08 2.53zM77.9-24.7l-4 9.7h9.05c-0.467-1.1-0.907-2.16-1.32-3.18-0.42-1.013-0.807-1.947-1.16-2.8-0.347-0.847-0.653-1.587-0.92-2.22-0.267-0.633-0.467-1.133-0.6-1.5v0c-0.033-0.067-0.11-0.3-0.23-0.7-0.113-0.4-0.203-0.767-0.27-1.1v0c-0.067 0.333-0.167 0.7-0.3 1.1-0.133 0.4-0.217 0.633-0.25 0.7zM122.55 0h-23.5v-36.25h5.5v31.05h18z" fill="#000000" fill-rule="nonzero" stroke="none" stroke-width="1" stroke-linecap="butt" stroke-linejoin="miter" stroke-miterlimit="10" stroke-dasharray="" stroke-dashoffset="0" font-family="none" font-weight="none" font-size="none" text-anchor="none" style="mix-blend-mode: normal" data-fill-palette-color="primary" opacity="1"></path><path xmlns="http://www.w3.org/2000/svg" d="M61.95 40.95h-5.4c-0.167-0.367-0.4-0.9-0.7-1.6-0.3-0.7-0.64-1.51-1.02-2.43-0.387-0.913-0.803-1.913-1.25-3-0.453-1.08-0.913-2.203-1.38-3.37v0h-12.8l-4.3 10.4h-5.4l16.15-37.95c0.2 0.467 0.56 1.317 1.08 2.55 0.513 1.233 1.13 2.707 1.85 4.42 0.713 1.72 1.513 3.62 2.4 5.7 0.88 2.087 1.78 4.197 2.7 6.33 0.913 2.133 1.813 4.233 2.7 6.3 0.88 2.067 1.687 3.967 2.42 5.7 0.733 1.733 1.36 3.207 1.88 4.42 0.513 1.22 0.87 2.063 1.07 2.53zM45.3 16.25l-4 9.7h9.05c-0.467-1.1-0.907-2.16-1.32-3.18-0.42-1.013-0.803-1.947-1.15-2.8-0.353-0.847-0.663-1.587-0.93-2.22-0.267-0.633-0.467-1.133-0.6-1.5v0c-0.033-0.067-0.107-0.3-0.22-0.7-0.12-0.4-0.213-0.767-0.28-1.1v0c-0.067 0.333-0.167 0.7-0.3 1.1-0.133 0.4-0.217 0.633-0.25 0.7zM71.95 40.95h-5.5v-36.25h9.9c1.9 0 3.643 0.25 5.23 0.75 1.58 0.5 2.947 1.243 4.1 2.23 1.147 0.98 2.037 2.177 2.67 3.59 0.633 1.42 0.95 3.047 0.95 4.88v0c0 1-0.1 1.99-0.3 2.97-0.2 0.987-0.523 1.937-0.97 2.85-0.453 0.92-1.03 1.77-1.73 2.55-0.7 0.787-1.55 1.447-2.55 1.98v0c1.333 2.1 2.783 4.423 4.35 6.97 1.567 2.553 3.15 5.047 4.75 7.48v0h-6.55c-0.667-1.033-1.357-2.117-2.07-3.25-0.72-1.133-1.437-2.26-2.15-3.38-0.72-1.113-1.42-2.213-2.1-3.3-0.687-1.08-1.33-2.087-1.93-3.02v0h-1-5.1zM71.95 9.8v13.05h4.95c1.333 0 2.45-0.227 3.35-0.68 0.9-0.447 1.61-1.003 2.13-1.67 0.513-0.667 0.88-1.383 1.1-2.15 0.213-0.767 0.32-1.467 0.32-2.1v0c0-0.633-0.107-1.327-0.32-2.08-0.22-0.747-0.597-1.447-1.13-2.1-0.533-0.647-1.24-1.187-2.12-1.62-0.887-0.433-1.98-0.65-3.28-0.65v0zM94.6 4.7h23.55v5.2h-9.15v31.05h-5.45v-31.05h-8.95z" fill="#000000" fill-rule="nonzero" stroke="none" stroke-width="1" stroke-linecap="butt" stroke-linejoin="miter" stroke-miterlimit="10" stroke-dasharray="" stroke-dashoffset="0" font-family="none" font-weight="none" font-size="none" text-anchor="none" style="mix-blend-mode: normal" data-fill-palette-color="primary" opacity="1"></path></g></svg></g></svg></g></svg></g></svg></g><g transform="matrix(1,0,0,1,0,0.4999999999999858)"><svg viewBox="0 0 153.61035161950474 200" height="200" width="153.61035161950474"><g><svg xmlns="http://www.w3.org/2000/svg" xmlns:xlink="http://www.w3.org/1999/xlink" version="1.1" x="0" y="0" viewBox="125.69999694824219 83.9000015258789 260.5999755859375 339.3000183105469" style="enable-background:new 0 0 512 512;" xml:space="preserve" height="200" width="153.61035161950474" class="icon-icon-0" data-fill-palette-color="accent" id="icon-0"><g fill="#ff5ed4" data-fill-palette-color="accent"><g fill="#ff5ed4" data-fill-palette-color="accent"><polygon points="332.2,420.1 347,405.3 302.1,360.5 272.6,360.5   " fill="#000000" data-fill-palette-color="accent"></polygon><rect x="245.6" y="360.5" width="20.9" height="62.7" fill="#000000" data-fill-palette-color="accent"></rect><path d="M386.3 344.6H125.7v-30.9h20.9V120.2c0-8.5 6.9-15.4 15.4-15.4h47.2V83.9h93.6v20.9H350c8.5 0 15.4 6.9 15.4 15.4v193.5h20.9V344.6zM135.7 334.6h240.7v-10.9h-20.9V120.2c0-3-2.4-5.4-5.4-5.4h-57.2V93.9h-73.6v20.9H162c-3 0-5.4 2.4-5.4 5.4v203.5h-20.9V334.6z" fill="#000000" data-fill-palette-color="accent"></path><polygon points="165,405.3 179.8,420.1 239.4,360.5 209.9,360.5   " fill="#000000" data-fill-palette-color="accent"></polygon></g><g fill="#ff5ed4" data-fill-palette-color="accent"><path d="M296.5 216.9c-1.4 25.9-34.6 43.7-38.3 45.6-2.6-2.2-34.2-18.8-38.2-43.1-0.3-2.1-2.5-14.5 5.5-23 6.2-6.6 14.9-6.9 16.2-6.9 6 0 11.8 3.7 16.5 8 4.7-4.3 10.7-8.2 16.5-8 1.6 0 10.1 0.4 16.2 7C297.2 203.3 296.7 212.4 296.5 216.9z" fill="#000000" data-fill-palette-color="accent"></path><path d="M257.6 267.3l-2-1.7c-0.2-0.2-1.2-0.8-2.1-1.4-8.3-5.3-33.7-21.4-37.4-44.1l0-0.3c-2-13.6 2.5-21.7 6.6-26.1 7.3-7.8 17.2-8.2 19.1-8.2 5.3 0 10.9 2.3 16.5 6.7 4.5-3.6 10.4-6.9 16.6-6.7 2.1 0 11.9 0.5 19.1 8.3 7.3 7.9 6.9 18.2 6.7 23.1l0 0.2c-1.5 28.1-36.5 46.9-40.5 48.9L257.6 267.3zM241.7 193.5c-0.3 0-8 0.1-13.3 5.6-4.2 4.4-5.7 11.1-4.5 19.4l0 0.3c3.1 19.1 26.2 33.8 33.8 38.6 0.2 0.1 0.4 0.3 0.6 0.4 7.5-4.3 32.9-20.2 34.1-41.1l0-0.2c0.2-4.1 0.5-11.8-4.5-17.3-5.1-5.6-12.4-5.7-13.3-5.7l-0.1 0c-3.8-0.1-8.6 2.3-13.7 7l-2.7 2.5-2.7-2.5C250.5 195.9 245.7 193.5 241.7 193.5z" fill="#000000" data-fill-palette-color="accent"></path></g></g></svg></g></svg></g></svg></g><defs></defs></svg><rect width="395.52" height="160.88965846062436" fill="none" stroke="none" visibility="hidden"></rect></g></svg></g></svg>